<svg width="34" height="34" viewBox="0 0 34 34" fill="none" xmlns="http://www.w3.org/2000/svg">
<path d="M15.0745 4.10212C12.8459 6.42645 11.0378 8.4438 11.0378 8.61922C11.0378 8.88235 13.771 19.8243 13.8761 19.9997C13.9392 20.0655 17.5974 21.1399 17.8077 21.1399C17.8917 21.1399 17.8287 20.7672 17.6815 20.3286C17.4292 19.5831 17.3031 19.4953 16.2729 19.2103C15.6422 19.0568 15.1165 18.8814 15.0745 18.8594C14.9484 18.706 12.7408 9.8691 12.8039 9.78139C12.909 9.69368 21.3187 12.0619 21.4659 12.2154C21.5289 12.2592 21.9074 13.6407 22.3068 15.2414C22.7273 16.864 23.2319 18.8594 23.4422 19.7146C23.6734 20.5479 23.8206 21.2715 23.7785 21.3153C23.7365 21.3373 23.4632 21.2715 23.1478 21.1399C22.5802 20.9206 22.5591 20.9206 22.7063 21.6223C22.9165 22.631 22.8955 22.6091 24.0939 22.8941L25.1661 23.1792L29.1397 18.9252C31.3263 16.6009 33.1133 14.5835 33.1133 14.4301C33.1133 14.2985 32.6508 12.3689 32.0831 10.1542C31.5155 7.93946 30.8847 5.48356 30.6745 4.69417C30.4643 3.90477 30.254 3.20309 30.1909 3.11537C30.1068 3.02766 27.6891 2.30405 24.8087 1.51465C21.9074 0.725258 19.4475 0.0454987 19.3214 0.00164332C19.1953 -0.0641397 17.282 1.79971 15.0745 4.10212ZM23.7575 2.72068C25.9651 3.33465 27.8783 3.88284 28.0465 3.94863C28.4459 4.08019 22.2438 10.6146 21.6971 10.6146C21.4869 10.6146 19.7839 10.1761 17.9128 9.64982C16.0416 9.12356 14.1915 8.61922 13.8341 8.53151C13.4556 8.4438 13.1403 8.31223 13.1403 8.24645C13.1403 8.00525 19.3214 1.62429 19.5527 1.62429C19.6788 1.62429 21.571 2.12863 23.7575 2.72068ZM30.5694 9.82524L31.6837 14.1889L28.4459 17.5657L25.2292 20.9206L24.8928 19.6708C24.7036 18.9691 24.157 16.9079 23.6944 15.1098L22.8535 11.8207L26.0281 8.48766C27.7732 6.64573 29.2659 5.22043 29.35 5.30814C29.413 5.39585 29.9597 7.43513 30.5694 9.82524Z" fill="#485BFF"/>
<path d="M4.19455 15.0984L0 19.1802L1.48557 24.5097C2.31574 27.4495 3.03668 29.9873 3.10222 30.1354C3.16776 30.3046 4.21639 30.6853 5.4835 31.0025C6.70691 31.2986 9.02265 31.8907 10.5738 32.2926C15.1615 33.4981 14.3751 33.6884 17.4336 30.6853C18.8973 29.2471 20.798 27.386 21.6281 26.5612L23.1792 25.0596L22.2617 21.6969C21.1912 17.7209 20.0989 13.9564 20.0333 13.8929C19.8367 13.766 16.3194 12.9201 16.1665 12.9835C16.0791 13.0258 16.0791 13.3431 16.1883 13.7026C16.3413 14.2948 16.516 14.4005 17.6302 14.7177L18.8973 15.0561L19.7275 18.0804C20.1863 19.7301 20.7543 21.6969 20.9727 22.4583C21.1912 23.1985 21.3441 23.833 21.3004 23.8753C21.2349 23.9387 12.387 21.6335 12.2559 21.5277C12.1686 21.422 9.83097 13.1316 9.80912 12.8778C9.80912 12.772 10.0931 12.7509 10.4427 12.8355C11.0981 12.9624 11.0981 12.9624 10.8796 12.2645C10.7704 11.8838 10.683 11.5454 10.683 11.5242C10.683 11.4396 9.04449 11.0378 8.71679 11.0378C8.54202 11.0378 6.48844 12.8778 4.19455 15.0984ZM9.54697 17.3402C10.1805 19.6243 10.683 21.6335 10.683 21.8027C10.683 22.2045 4.30378 28.4223 4.10716 28.2108C3.97608 28.0839 2.86191 24.1925 1.98804 20.8087L1.6385 19.4763L4.89364 16.3251C6.70691 14.5697 8.21432 13.1527 8.27986 13.1527C8.3454 13.1527 8.91341 15.035 9.54697 17.3402ZM16.6471 24.1714L20.9727 25.2923L17.6302 28.5281L14.2658 31.785L12.6273 31.362C11.7316 31.1294 9.83097 30.643 8.3891 30.2834C6.94722 29.9239 5.61458 29.5855 5.46165 29.5221C5.24318 29.4586 6.26997 28.3166 8.52018 26.1382C10.3553 24.3405 11.9938 22.9236 12.103 22.9659C12.2341 23.0082 14.2658 23.5369 16.6471 24.1714Z" fill="#212B36"/>
</svg>
